<?xml version="1.0" standalone="no"?>
<!DOCTYPE svg PUBLIC "-//W3C//DTD SVG 20010904//EN"
 "http://www.w3.org/TR/2001/REC-SVG-20010904/DTD/svg10.dtd">
<svg version="1.0" xmlns="http://www.w3.org/2000/svg"
 width="3622.000000pt" height="3622.000000pt" viewBox="0 0 3622.000000 3622.000000"
 preserveAspectRatio="xMidYMid meet">
<metadata>
Created by potrace 1.14, written by Peter Selinger 2001-2017
</metadata>
<g transform="translate(0.000000,3622.000000) scale(0.100000,-0.100000)"
fill="#000000" stroke="none">
<path d="M18098 33763 c-15 -17 -46 -67 -100 -164 -45 -79 -248 -434 -258
-449 -8 -13 -81 -140 -130 -225 -10 -16 -58 -100 -107 -185 -49 -85 -101 -175
-115 -200 -60 -105 -593 -1031 -629 -1091 -21 -36 -39 -71 -39 -77 0 -7 -4
-12 -9 -12 -5 0 -14 -15 -22 -32 -7 -18 -16 -35 -19 -38 -5 -4 -45 -72 -119
-202 -28 -51 -44 -78 -145 -252 -47 -82 -86 -153 -86 -158 0 -4 -4 -8 -10 -8
-5 0 -10 -5 -10 -11 0 -6 -22 -48 -50 -94 -27 -46 -50 -86 -50 -90 0 -4 -8
-19 -19 -33 -10 -15 -31 -49 -46 -77 -15 -27 -52 -91 -81 -142 -30 -50 -54
-96 -54 -101 0 -6 -4 -12 -8 -14 -5 -1 -23 -28 -40 -58 -17 -30 -54 -95 -81
-145 -28 -49 -66 -115 -84 -145 -17 -31 -60 -105 -95 -165 -35 -61 -67 -117
-72 -125 -5 -8 -39 -67 -75 -130 -36 -63 -70 -122 -75 -130 -5 -8 -24 -42 -43
-75 -18 -33 -57 -100 -86 -150 -29 -49 -63 -108 -76 -130 -12 -22 -56 -99 -98
-172 -42 -72 -86 -148 -97 -167 -11 -20 -28 -51 -39 -68 -91 -158 -328 -569
-341 -593 -9 -16 -52 -91 -95 -165 -43 -74 -88 -153 -101 -175 -12 -22 -59
-102 -103 -179 -45 -76 -81 -140 -81 -142 0 -3 -11 -21 -23 -42 -19 -29 -204
-349 -318 -549 -11 -18 -27 -48 -38 -65 -84 -147 -131 -232 -131 -238 0 -5 -4
-10 -8 -12 -5 -1 -22 -28 -39 -58 -17 -30 -54 -95 -83 -145 -28 -49 -62 -108
-75 -130 -42 -76 -62 -111 -212 -370 -83 -143 -160 -276 -171 -295 -11 -19
-52 -91 -92 -160 -40 -69 -84 -145 -98 -170 -31 -55 -337 -588 -362 -630 -18
-31 -165 -286 -176 -305 -6 -11 -54 -95 -107 -187 -53 -91 -97 -171 -97 -176
0 -6 -4 -12 -8 -14 -4 -1 -37 -55 -73 -118 -37 -63 -110 -191 -164 -285 -54
-93 -107 -186 -118 -205 -17 -32 -75 -133 -97 -170 -5 -8 -23 -40 -41 -70 -30
-52 -41 -70 -87 -152 -11 -18 -53 -91 -94 -163 -42 -71 -85 -146 -96 -165 -45
-80 -96 -167 -119 -205 -13 -22 -29 -52 -36 -67 -6 -16 -15 -28 -19 -28 -4 0
-8 -4 -8 -9 0 -7 -129 -237 -180 -321 -40 -66 -100 -174 -100 -180 0 -4 -11
-20 -24 -35 -14 -16 -23 -32 -20 -36 2 -4 0 -10 -5 -14 -5 -3 -16 -18 -24 -33
-8 -15 -39 -70 -69 -122 -30 -52 -61 -106 -69 -120 -8 -14 -16 -27 -19 -30 -3
-3 -14 -23 -26 -45 -11 -22 -47 -85 -79 -140 -59 -102 -78 -136 -116 -202 -12
-21 -45 -78 -74 -128 -139 -238 -245 -426 -245 -435 0 -5 -4 -10 -10 -10 -5 0
-10 -4 -10 -9 0 -4 -49 -93 -110 -196 -60 -103 -110 -190 -110 -192 0 -3 -8
-17 -19 -31 -10 -15 -29 -47 -43 -72 -29 -52 -125 -218 -298 -515 -29 -49 -62
-108 -75 -130 -12 -22 -69 -121 -127 -220 -57 -99 -144 -248 -192 -332 -110
-190 -135 -260 -131 -368 5 -146 4 -143 211 -502 31 -54 66 -114 76 -133 11
-19 50 -87 87 -150 89 -151 209 -360 251 -435 19 -33 37 -61 42 -63 4 -2 8 -8
8 -14 0 -5 16 -37 36 -71 20 -34 47 -80 59 -102 74 -129 325 -562 332 -571 4
-5 17 -28 29 -50 11 -21 56 -100 99 -174 43 -74 94 -162 113 -195 41 -72 52
-91 126 -217 130 -225 170 -295 194 -338 14 -25 32 -56 41 -70 10 -14 28 -46
42 -72 13 -27 27 -48 31 -48 5 0 8 -5 8 -11 0 -6 16 -38 36 -72 20 -34 46 -78
57 -97 73 -129 152 -266 157 -270 3 -3 16 -25 29 -50 13 -25 124 -216 245
-425 269 -464 318 -550 330 -574 13 -25 56 -49 80 -45 11 1 27 11 37 21 15 16
133 217 169 288 8 17 18 32 21 35 3 3 20 32 38 65 18 33 50 89 71 125 20 36
48 85 62 110 35 63 59 106 149 263 44 75 79 140 79 144 0 3 6 14 14 22 12 14
45 72 102 181 11 19 21 37 24 40 11 9 230 403 230 411 0 5 4 9 9 9 5 0 13 10
18 23 7 18 64 123 103 187 14 23 259 457 323 570 10 19 24 41 29 47 14 18 17
93 4 123 -6 14 -27 54 -47 90 -96 171 -377 674 -419 750 -26 47 -56 101 -67
120 -11 19 -96 172 -190 340 -94 168 -179 321 -190 340 -11 19 -35 62 -53 95
-18 33 -42 76 -53 95 -11 19 -35 62 -54 95 -64 112 -76 145 -70 190 6 37 32
101 48 115 3 3 21 34 41 70 19 36 100 182 180 325 80 143 160 287 178 320 18
33 36 65 40 70 4 6 22 37 40 70 18 33 65 119 105 190 40 72 89 162 110 200 21
39 48 86 59 105 12 19 28 49 36 65 8 17 19 37 26 45 6 8 26 42 43 75 18 33 36
67 41 75 40 67 140 252 140 260 0 5 3 10 8 10 4 0 12 10 18 23 6 12 102 180
213 372 112 193 213 368 226 390 12 22 39 68 59 102 20 34 36 66 36 71 0 6 4
12 8 14 5 2 23 30 42 63 28 51 74 131 270 470 21 36 125 217 151 263 11 18 59
102 107 185 49 84 135 233 192 332 57 99 158 275 225 390 67 116 216 374 332
575 116 201 236 410 268 465 164 283 235 409 235 417 0 4 5 8 10 8 6 0 10 4
10 10 0 5 22 47 49 92 49 84 185 319 227 393 12 22 59 102 103 179 45 76 81
140 81 141 0 1 25 44 55 94 30 51 55 93 55 96 0 2 28 50 61 107 34 57 75 128
92 158 17 30 57 99 89 153 32 55 58 101 58 103 0 2 11 21 24 42 12 20 93 159
178 307 86 149 185 321 222 384 36 62 66 118 66 122 0 5 5 9 10 9 6 0 10 5 10
10 0 6 58 110 129 233 71 122 137 238 148 257 11 19 34 58 50 86 17 27 41 70
55 95 27 47 146 254 236 409 31 52 66 114 79 138 12 23 37 66 56 95 18 28 38
63 45 77 6 14 16 32 22 40 6 8 40 67 76 130 74 131 123 185 157 175 32 -10 73
-56 108 -122 18 -32 37 -65 43 -73 6 -8 16 -24 22 -35 16 -29 58 -104 83 -147
11 -21 29 -53 39 -70 26 -46 81 -140 92 -158 9 -14 218 -380 264 -462 35 -61
155 -270 183 -318 14 -25 34 -60 44 -77 11 -18 27 -48 38 -65 10 -18 67 -118
126 -223 60 -104 111 -192 114 -195 3 -3 13 -18 21 -35 8 -16 71 -126 139
-245 68 -118 130 -226 138 -240 27 -48 60 -105 81 -142 12 -21 30 -53 41 -70
10 -18 89 -157 176 -308 87 -151 166 -288 175 -305 9 -16 52 -89 94 -162 42
-73 76 -137 76 -143 0 -5 5 -10 10 -10 6 0 10 -4 10 -10 0 -5 14 -33 31 -62
18 -29 39 -66 49 -83 20 -35 514 -895 541 -942 23 -40 51 -89 96 -168 19 -33
38 -67 43 -75 14 -22 228 -396 258 -450 13 -25 37 -65 52 -90 15 -25 74 -126
130 -225 57 -99 112 -196 123 -215 11 -19 31 -55 45 -80 14 -25 55 -97 92
-160 37 -63 122 -212 190 -330 68 -118 166 -289 218 -380 52 -91 109 -190 125
-220 16 -30 33 -59 37 -65 5 -5 52 -86 105 -180 54 -93 106 -186 117 -205 12
-19 29 -51 40 -70 11 -19 28 -48 39 -65 10 -16 22 -37 26 -45 4 -8 47 -85 96
-170 50 -85 99 -171 110 -190 10 -19 36 -64 57 -100 21 -36 47 -81 57 -100 11
-19 62 -107 113 -195 50 -88 106 -185 122 -215 17 -30 45 -80 63 -110 18 -30
122 -210 230 -399 167 -292 279 -488 365 -636 235 -408 234 -407 233 -454 -1
-38 -13 -68 -72 -168 -39 -67 -71 -126 -71 -131 0 -6 -4 -12 -8 -14 -5 -1 -22
-28 -39 -58 -16 -30 -91 -161 -165 -290 -75 -129 -144 -251 -155 -270 -11 -19
-100 -174 -198 -345 -98 -170 -186 -323 -195 -340 -9 -16 -60 -104 -112 -195
-159 -277 -151 -258 -151 -330 0 -71 -6 -58 126 -285 83 -143 64 -110 275
-475 93 -162 202 -351 242 -420 40 -69 81 -138 90 -155 9 -16 93 -160 185
-320 92 -159 179 -310 193 -335 14 -25 42 -74 64 -109 21 -34 38 -64 38 -65 0
-10 223 -387 241 -409 29 -34 76 -42 106 -19 12 9 56 78 99 152 42 74 111 194
152 265 41 72 83 144 92 160 9 17 31 53 47 81 17 27 41 70 55 95 14 24 41 71
60 104 19 33 67 116 107 185 39 69 76 132 81 140 14 23 71 121 93 160 11 19
43 76 72 125 29 50 62 106 72 125 11 19 111 193 223 385 112 193 214 370 228
394 14 25 38 68 55 95 16 28 38 65 47 81 10 17 66 113 125 215 59 102 118 203
130 225 21 40 91 161 187 325 27 47 53 92 58 100 53 90 227 392 240 415 9 17
107 185 217 375 110 190 210 362 222 383 12 21 28 49 37 61 8 13 17 46 21 73
6 54 7 51 -107 248 -29 50 -60 104 -70 120 -9 17 -52 91 -95 165 -118 204
-145 251 -173 300 -14 25 -48 83 -75 130 -168 290 -197 341 -197 350 0 6 -3
10 -7 10 -5 0 -19 23 -32 50 -14 28 -29 50 -33 50 -4 0 -8 5 -8 10 0 6 -41 81
-91 168 -50 86 -130 225 -177 307 -47 83 -88 152 -92 155 -3 3 -12 19 -20 35
-29 58 -124 220 -132 223 -4 2 -8 8 -8 13 0 11 -130 241 -141 249 -3 3 -9 14
-13 25 -3 11 -22 44 -41 73 -19 30 -35 56 -35 59 0 3 -15 31 -34 62 -19 31
-43 72 -54 91 -31 55 -132 232 -152 265 -10 17 -51 89 -92 160 -41 72 -126
218 -188 325 -153 264 -147 255 -171 298 -77 136 -115 200 -129 222 -10 14
-30 48 -45 75 -15 28 -93 164 -174 303 -80 139 -159 276 -175 305 -15 29 -34
59 -42 68 -8 8 -14 19 -14 22 0 4 -25 51 -56 105 -31 53 -68 117 -82 142 -13
25 -28 50 -32 55 -4 6 -20 31 -34 58 -15 26 -126 220 -248 430 -121 210 -229
396 -238 412 -14 25 -75 130 -150 260 -10 17 -39 68 -66 115 -26 47 -50 87
-53 90 -3 3 -15 23 -27 45 -11 22 -79 140 -150 263 -71 123 -138 240 -150 260
-12 20 -37 64 -56 97 -19 33 -106 184 -193 335 -87 151 -188 327 -225 390 -37
63 -77 131 -87 150 -11 19 -71 123 -133 230 -62 107 -151 263 -198 345 -47 83
-90 152 -94 153 -4 2 -8 8 -8 14 0 5 -62 116 -137 246 -75 131 -181 314 -234
407 -54 94 -102 175 -106 181 -9 12 -17 26 -68 119 -21 39 -41 72 -44 75 -3 3
-13 18 -21 35 -8 16 -66 116 -127 222 -62 107 -124 215 -139 241 -77 137 -119
209 -132 225 -8 9 -11 17 -6 17 5 0 4 4 -2 8 -5 4 -39 58 -75 121 -79 141 -97
172 -165 288 -30 51 -54 97 -54 102 0 6 -3 11 -7 11 -5 0 -13 10 -19 23 -16
31 -53 97 -114 202 -29 50 -111 191 -183 315 -71 124 -137 239 -147 255 -19
33 -81 140 -112 195 -11 19 -62 107 -113 195 -51 88 -106 183 -121 210 -16 28
-74 129 -129 223 -55 95 -114 198 -130 227 -17 30 -36 60 -43 67 -7 7 -12 16
-12 20 0 5 -40 78 -90 163 -49 84 -98 169 -108 187 -10 18 -61 105 -112 193
-133 230 -130 225 -163 285 -17 30 -38 66 -47 80 -15 23 -72 122 -130 225 -12
22 -71 124 -131 227 -60 102 -109 191 -109 197 0 6 -4 11 -10 11 -5 0 -10 5
-10 10 0 6 -12 29 -27 53 -15 23 -34 56 -43 72 -9 17 -26 46 -37 65 -11 19
-53 91 -92 160 -40 69 -76 132 -81 140 -59 101 -152 264 -170 295 -98 177
-124 215 -145 215 -7 0 -19 -8 -27 -17z"/>
<path d="M18110 20707 c-14 -7 -35 -19 -46 -27 -20 -15 -104 -153 -104 -171 0
-5 -4 -9 -10 -9 -5 0 -10 -4 -10 -9 0 -5 -99 -181 -220 -390 -120 -209 -231
-402 -246 -428 -14 -27 -50 -88 -79 -138 -29 -49 -62 -106 -73 -125 -20 -36
-160 -280 -193 -337 -11 -18 -27 -48 -37 -65 -11 -18 -63 -109 -117 -203 -55
-93 -104 -180 -109 -192 -6 -13 -14 -23 -18 -23 -5 0 -8 -5 -8 -10 0 -6 -33
-68 -74 -138 -41 -70 -83 -143 -94 -162 -51 -91 -123 -216 -131 -230 -9 -14
-182 -314 -248 -429 -17 -31 -63 -110 -102 -176 -38 -66 -80 -140 -93 -165
-13 -25 -26 -46 -30 -48 -5 -2 -8 -8 -8 -12 0 -5 -20 -42 -44 -82 -23 -40 -98
-170 -166 -288 -68 -118 -135 -235 -150 -260 -15 -25 -39 -65 -52 -90 -14 -25
-68 -119 -120 -210 -53 -91 -105 -181 -116 -200 -10 -19 -45 -79 -76 -132 -31
-53 -56 -102 -56 -107 0 -6 -4 -11 -9 -11 -5 0 -14 -15 -22 -32 -7 -18 -16
-35 -19 -38 -3 -3 -29 -45 -57 -95 -91 -160 -303 -530 -313 -545 -5 -8 -26
-44 -46 -80 -21 -36 -105 -182 -187 -324 -145 -253 -164 -284 -208 -363 -21
-37 -210 -366 -434 -753 -62 -107 -125 -217 -140 -245 -15 -27 -31 -54 -35
-60 -4 -5 -18 -30 -32 -55 -14 -25 -68 -120 -121 -211 -54 -91 -97 -171 -97
-177 0 -6 -3 -12 -8 -14 -6 -3 -57 -87 -122 -204 -96 -170 -193 -335 -201
-339 -5 -4 -9 -15 -9 -25 0 -10 -3 -20 -8 -22 -6 -3 -125 -204 -202 -343 -15
-27 -109 -191 -209 -364 -100 -172 -181 -317 -181 -322 0 -5 -4 -9 -8 -9 -4 0
-13 -12 -20 -27 -15 -32 -32 -63 -89 -159 -63 -106 -138 -237 -146 -254 -4 -8
-20 -36 -35 -61 -15 -26 -94 -165 -177 -309 -181 -317 -213 -354 -360 -410
-29 -11 -163 -66 -210 -86 -22 -10 -42 -18 -45 -18 -3 -1 -11 -5 -17 -9 -7 -5
-13 -5 -13 -2 0 3 -12 -1 -27 -9 -16 -9 -86 -39 -158 -67 -115 -46 -330 -133
-392 -159 -38 -17 -91 -37 -113 -45 -11 -4 -48 -19 -85 -36 -23 -10 -70 -29
-105 -42 -36 -14 -83 -33 -105 -42 -22 -10 -41 -17 -42 -16 -2 0 -24 -9 -50
-20 -27 -12 -97 -41 -158 -65 -60 -25 -119 -48 -130 -53 -11 -5 -42 -18 -70
-29 -27 -12 -113 -46 -190 -77 -77 -31 -151 -61 -165 -67 -14 -6 -29 -12 -35
-14 -13 -3 -264 -102 -290 -114 -32 -14 -176 -70 -225 -87 -25 -8 -50 -19 -56
-24 -7 -6 -20 -11 -30 -14 -17 -3 -160 -58 -276 -106 -57 -23 -91 -36 -100
-38 -4 -1 -45 -18 -90 -37 -46 -20 -91 -37 -100 -39 -10 -2 -32 -10 -50 -19
-18 -8 -132 -53 -253 -101 -121 -47 -229 -90 -240 -94 -11 -5 -49 -20 -85 -35
-36 -14 -78 -31 -95 -37 -16 -7 -32 -13 -35 -14 -6 -1 -265 -103 -300 -118
-14 -5 -29 -11 -35 -13 -5 -1 -66 -25 -135 -52 -69 -28 -190 -76 -270 -106
-80 -31 -156 -62 -170 -68 -14 -6 -34 -14 -45 -18 -11 -4 -31 -12 -45 -18 -14
-6 -77 -31 -140 -55 -63 -25 -158 -62 -210 -82 -106 -42 -162 -50 -168 -23 -4
18 12 51 80 169 27 45 48 86 48 90 0 5 5 9 10 9 6 0 10 4 10 9 0 5 48 92 107
193 58 101 114 197 123 213 10 17 68 118 130 225 62 107 121 209 131 226 23
42 266 462 346 597 35 60 63 111 63 114 0 3 8 17 19 31 10 15 29 47 43 72 14
25 49 86 78 135 29 50 62 108 75 130 12 22 64 112 115 200 51 88 105 181 119
206 14 25 87 150 161 278 74 128 144 249 156 269 11 20 47 82 79 137 32 55 73
127 91 160 19 33 38 67 44 75 9 15 56 95 90 155 10 17 43 74 74 127 31 53 56
101 56 107 0 5 4 11 8 13 5 2 72 113 149 248 78 135 198 344 269 465 70 121
135 234 144 250 10 17 41 71 70 120 29 50 62 108 75 130 12 22 64 112 115 200
121 209 118 204 186 320 114 197 129 235 113 306 -5 19 -61 127 -125 240 -64
112 -125 218 -134 234 -9 17 -70 122 -134 234 -64 112 -129 225 -143 250 -14
25 -34 58 -44 73 -11 14 -19 28 -19 31 0 7 -92 171 -99 177 -3 3 -11 14 -17
25 -55 101 -87 158 -150 267 -41 70 -74 132 -74 138 0 5 -4 10 -9 10 -5 0 -11
6 -13 13 -2 7 -65 120 -141 252 -165 286 -147 255 -194 335 -20 36 -45 79 -54
95 -9 17 -27 50 -40 75 -13 25 -26 47 -29 50 -3 3 -11 17 -19 32 -31 61 -68
82 -95 56 -11 -12 -61 -92 -104 -168 -11 -19 -70 -123 -132 -230 -62 -107
-120 -208 -130 -225 -9 -16 -38 -65 -64 -108 -25 -43 -46 -81 -46 -84 0 -3 -8
-17 -19 -31 -10 -15 -31 -51 -47 -80 -31 -57 -38 -69 -70 -122 -12 -19 -83
-143 -159 -275 -76 -132 -148 -256 -160 -275 -12 -19 -43 -73 -70 -119 -73
-129 -75 -133 -190 -331 -96 -166 -270 -467 -315 -545 -75 -129 -138 -240
-205 -355 -42 -74 -89 -155 -105 -180 -15 -25 -39 -65 -52 -90 -14 -25 -67
-117 -118 -205 -51 -88 -101 -173 -110 -190 -10 -16 -33 -57 -52 -90 -19 -33
-94 -161 -165 -285 -72 -124 -181 -313 -243 -420 -62 -107 -122 -211 -133
-230 -10 -19 -50 -87 -87 -150 -37 -63 -79 -135 -93 -160 -33 -59 -256 -445
-340 -589 -37 -62 -67 -115 -67 -116 0 -2 -17 -32 -38 -66 -22 -35 -50 -84
-64 -109 -14 -25 -67 -117 -118 -205 -87 -149 -331 -573 -370 -640 -10 -16
-43 -74 -74 -127 -31 -53 -56 -101 -56 -107 0 -5 -4 -11 -8 -13 -4 -1 -39 -57
-77 -123 -38 -66 -96 -167 -130 -225 -34 -58 -73 -125 -87 -150 -66 -116 -185
-321 -281 -487 -59 -101 -107 -186 -107 -190 0 -3 -6 -14 -14 -22 -8 -9 -26
-38 -41 -66 -14 -27 -34 -63 -44 -80 -66 -110 -131 -225 -131 -234 0 -5 -4
-11 -8 -13 -4 -1 -22 -28 -39 -58 -56 -99 -163 -285 -173 -300 -5 -8 -26 -44
-46 -80 -20 -36 -72 -125 -116 -198 -43 -73 -78 -135 -78 -137 0 -3 -25 -45
-55 -95 -30 -50 -55 -92 -55 -94 0 -3 -51 -92 -90 -156 -11 -18 -160 -276
-176 -305 -6 -11 -52 -90 -101 -175 -49 -85 -156 -270 -237 -410 -82 -140
-190 -327 -241 -415 -51 -88 -98 -171 -105 -185 -7 -14 -16 -27 -19 -30 -6 -5
-32 -52 -70 -125 -9 -16 -19 -32 -22 -35 -3 -3 -30 -48 -60 -100 -29 -52 -62
-108 -71 -125 -10 -16 -28 -49 -40 -72 -12 -24 -26 -43 -30 -43 -4 0 -8 -5 -8
-10 0 -12 -226 -408 -246 -431 -8 -8 -14 -23 -14 -31 0 -9 -4 -18 -8 -20 -7
-3 -29 -39 -120 -198 -11 -19 -61 -107 -112 -195 -51 -88 -124 -214 -162 -280
-38 -66 -73 -127 -78 -135 -14 -23 -71 -121 -90 -155 -9 -16 -59 -102 -110
-190 -51 -88 -101 -175 -111 -193 -11 -17 -27 -47 -38 -65 -10 -17 -60 -104
-111 -192 -51 -88 -99 -175 -107 -192 -13 -32 -12 -33 11 -33 21 0 162 52 271
99 46 21 74 31 78 29 1 -1 13 5 27 12 14 8 30 15 35 16 12 3 427 170 472 190
17 8 34 14 37 14 4 0 23 7 44 17 20 9 39 17 42 17 7 2 93 36 165 66 17 6 188
75 380 152 193 77 364 146 380 153 17 7 116 47 220 88 105 42 208 84 230 93
22 10 45 19 51 20 7 1 38 13 70 27 33 14 118 49 189 77 72 28 139 55 150 59
11 5 43 18 70 29 119 49 295 119 307 121 4 1 29 11 55 22 27 12 120 50 208 85
88 36 169 68 180 73 11 5 40 16 65 26 55 21 67 26 205 81 61 25 119 49 130 54
11 4 43 16 70 26 28 10 55 21 60 25 6 4 33 15 60 25 28 9 70 25 95 36 25 11
54 24 65 28 11 4 36 15 57 24 20 9 38 16 41 16 2 0 22 8 43 17 22 9 41 17 44
18 15 3 107 40 116 47 7 5 20 10 30 13 11 2 36 11 56 19 21 9 40 16 43 17 2 0
30 11 60 24 31 14 62 25 70 25 8 0 15 4 15 10 0 5 3 9 8 8 8 -1 29 6 79 28 17
8 33 14 36 14 2 0 22 8 43 17 22 9 41 17 44 18 6 0 115 44 155 61 17 7 257
104 535 214 278 111 518 208 534 216 16 8 33 14 38 14 4 0 30 9 56 21 26 12
56 24 67 29 11 4 31 12 45 18 76 31 266 107 270 108 3 0 19 7 35 14 17 7 35
14 41 15 6 2 27 10 45 18 43 19 199 83 219 89 8 3 20 7 25 8 6 2 37 15 70 30
33 15 62 27 65 27 3 0 21 7 40 15 19 9 202 82 405 163 204 81 384 153 400 160
17 7 62 25 100 40 39 15 86 34 105 42 56 24 100 41 120 48 3 1 17 7 33 13 67
29 83 35 92 37 6 2 28 11 50 20 22 10 42 19 45 20 3 1 14 5 25 10 11 4 54 21
95 37 79 30 114 45 142 59 10 5 22 9 28 9 5 0 33 11 62 24 58 25 88 38 103 42
10 3 1294 517 1330 533 11 4 31 13 45 19 14 6 140 57 280 113 140 55 266 106
280 112 14 6 27 11 30 11 5 1 40 15 105 41 17 7 41 17 55 22 14 6 27 10 30 10
3 0 16 6 30 13 14 8 27 15 30 15 5 0 51 18 110 43 52 21 36 15 570 227 504
199 532 211 562 226 10 5 22 9 27 9 4 0 30 10 57 22 27 12 51 22 54 23 6 1
163 63 215 85 22 10 51 21 65 25 14 4 43 16 65 25 22 10 128 53 235 95 209 83
294 121 329 151 37 32 84 101 186 279 54 94 106 184 116 200 10 17 24 41 31
55 22 41 244 423 335 577 45 78 83 146 83 152 0 6 5 11 10 11 6 0 10 4 10 10
0 5 20 42 44 82 40 68 209 359 254 438 49 87 92 162 145 252 31 53 57 101 57
107 0 6 5 11 10 11 6 0 10 4 10 9 0 5 25 50 55 100 30 51 55 93 55 95 0 2 17
33 38 67 22 35 50 84 64 109 14 25 42 73 62 107 20 34 36 66 36 72 0 6 3 11 8
11 4 0 16 17 27 38 11 20 37 65 57 100 21 34 38 64 38 66 0 2 17 33 38 67 22
35 50 84 64 109 14 25 67 117 118 205 51 88 101 174 110 190 10 17 115 198
234 403 119 205 216 377 216 382 0 6 3 10 8 10 4 0 12 10 18 23 23 49 59 112
67 115 4 2 7 10 7 17 0 7 3 15 8 17 4 2 16 21 28 43 12 22 58 102 102 179 45
76 82 139 82 141 0 3 105 181 120 205 6 8 13 22 17 30 6 14 47 84 138 240 18
30 66 114 107 185 41 72 110 191 154 265 43 74 86 149 94 165 8 17 17 32 20
35 5 4 245 418 308 529 14 25 38 68 55 95 29 49 168 290 191 331 53 93 79 136
87 141 5 3 9 14 9 25 0 10 4 19 8 19 5 0 16 15 25 33 104 202 147 253 209 245
36 -5 52 -21 93 -91 19 -34 40 -69 45 -77 10 -15 138 -238 172 -300 11 -19 44
-76 74 -127 30 -51 54 -96 54 -102 0 -5 4 -11 8 -13 4 -1 19 -23 33 -48 45
-79 70 -123 112 -195 52 -87 51 -86 171 -296 55 -96 102 -176 105 -179 3 -3
14 -21 25 -40 53 -98 81 -148 98 -172 10 -14 18 -28 18 -31 0 -3 20 -38 45
-79 24 -40 53 -89 63 -108 10 -19 85 -150 167 -290 81 -140 156 -270 166 -287
20 -36 658 -1138 719 -1243 21 -36 61 -105 90 -155 29 -49 64 -110 78 -135 14
-25 71 -124 127 -220 56 -96 155 -267 220 -380 141 -244 301 -519 376 -648 30
-51 60 -105 68 -120 8 -15 17 -29 20 -32 3 -3 13 -18 21 -35 8 -16 38 -70 67
-119 29 -49 53 -90 53 -91 0 -2 17 -32 38 -66 22 -35 51 -86 67 -114 71 -129
120 -210 127 -213 4 -2 8 -8 8 -13 0 -5 41 -80 91 -167 50 -86 103 -177 117
-202 14 -25 35 -61 47 -80 12 -19 36 -60 52 -90 17 -30 95 -165 173 -300 78
-135 154 -265 168 -290 14 -25 41 -72 61 -105 20 -33 43 -74 51 -90 8 -17 35
-50 60 -75 40 -39 68 -54 220 -113 96 -37 177 -67 180 -66 3 0 28 -11 56 -25
29 -14 55 -26 58 -26 3 0 113 -42 243 -94 131 -51 292 -115 358 -141 66 -25
129 -50 140 -55 24 -10 58 -23 65 -25 3 0 27 -11 54 -23 27 -12 51 -22 53 -22
5 0 199 -76 263 -102 51 -22 118 -48 215 -85 22 -9 54 -21 70 -29 17 -7 50
-20 75 -29 25 -10 59 -23 75 -30 52 -21 180 -71 205 -80 3 -1 14 -5 25 -10 63
-27 392 -157 400 -159 6 -2 21 -8 35 -14 49 -20 235 -94 245 -96 6 -1 28 -10
50 -20 22 -10 45 -19 50 -20 6 -2 21 -8 35 -14 14 -6 135 -54 270 -107 403
-159 673 -266 705 -280 17 -7 50 -21 75 -30 25 -10 59 -23 77 -31 17 -8 73
-30 125 -49 51 -20 102 -40 113 -45 69 -30 115 -48 115 -44 0 3 12 -1 28 -10
36 -19 303 -128 322 -131 3 -1 23 -9 45 -19 22 -10 45 -19 50 -20 6 -2 21 -8
35 -14 14 -6 248 -100 520 -207 272 -108 506 -201 520 -207 42 -18 53 -23 410
-164 190 -75 359 -142 375 -149 17 -7 50 -21 75 -30 55 -21 75 -29 120 -48 19
-9 89 -36 155 -61 66 -26 130 -51 143 -56 38 -17 101 -42 112 -44 3 -1 14 -7
25 -13 11 -6 22 -11 25 -11 9 -1 119 -44 285 -113 132 -54 984 -391 996 -394
9 -2 25 -8 35 -13 28 -14 51 -24 264 -108 107 -42 209 -82 225 -89 17 -7 62
-25 100 -40 39 -15 84 -33 100 -40 17 -7 104 -42 195 -78 207 -81 204 -80 210
-81 3 -1 16 -8 30 -16 14 -7 27 -13 30 -13 3 0 14 -3 25 -8 30 -11 59 -22 65
-23 3 -1 14 -7 25 -13 11 -6 23 -12 27 -12 4 -1 28 -10 54 -21 25 -11 51 -20
58 -20 7 0 16 -4 22 -8 5 -4 34 -18 64 -29 95 -37 1176 -468 1595 -635 220
-88 405 -161 410 -162 6 -2 24 -8 40 -16 17 -7 39 -16 50 -20 11 -4 36 -15 57
-24 20 -9 38 -16 41 -16 3 0 18 -5 34 -12 15 -6 30 -12 33 -13 3 -1 19 -7 35
-15 46 -20 157 -64 165 -66 3 0 16 -5 30 -11 43 -18 583 -234 620 -248 19 -7
60 -22 90 -34 71 -27 96 -27 103 1 4 12 1 28 -5 35 -6 7 -8 13 -5 13 4 0 -23
51 -60 112 -76 131 -163 279 -208 358 -18 30 -108 185 -201 343 -93 158 -178
304 -190 325 -11 20 -76 132 -144 247 -68 116 -134 229 -147 253 -12 24 -34
60 -48 80 -14 20 -25 39 -25 43 0 3 -36 65 -80 138 -44 73 -80 135 -80 137 0
1 -26 47 -58 101 -33 54 -132 224 -222 378 -90 154 -208 357 -264 450 -105
177 -145 248 -173 303 -9 17 -20 32 -25 32 -4 0 -8 5 -8 10 0 10 -218 389
-230 400 -3 3 -10 14 -16 25 -42 77 -80 144 -134 235 -35 58 -70 119 -80 135
-35 62 -96 168 -111 193 -9 15 -27 47 -41 72 -26 46 -122 213 -138 240 -5 8
-79 137 -164 285 -85 149 -160 275 -166 282 -5 7 -10 15 -10 18 0 4 -16 34
-36 68 -20 34 -46 78 -57 97 -11 19 -28 49 -38 65 -10 17 -30 53 -45 80 -14
28 -35 62 -45 77 -11 14 -19 29 -19 32 0 3 -14 29 -31 58 -41 69 -137 233
-162 278 -26 47 -234 408 -317 550 -37 63 -78 133 -90 155 -12 22 -81 141
-152 265 -72 124 -160 277 -196 340 -36 63 -69 117 -72 120 -3 3 -14 23 -26
45 -11 22 -47 85 -79 140 -154 266 -205 356 -205 365 0 6 -3 10 -7 10 -5 0
-13 10 -19 23 -6 12 -43 78 -84 147 -40 69 -84 145 -98 170 -29 51 -250 435
-334 580 -30 52 -126 219 -213 370 -87 151 -175 304 -197 339 -21 34 -38 65
-38 67 0 2 -14 27 -31 56 -43 72 -50 84 -190 328 -68 118 -126 217 -129 220
-3 3 -13 21 -22 40 -10 19 -22 42 -28 50 -10 16 -69 117 -130 226 -11 19 -55
95 -97 167 -126 218 -143 249 -143 258 0 5 -3 9 -7 9 -5 0 -13 10 -19 23 -5
12 -70 126 -143 252 -74 127 -145 250 -159 275 -14 25 -42 74 -64 109 -21 34
-38 64 -38 66 0 2 -27 49 -154 267 -31 53 -56 101 -56 107 0 5 -4 11 -9 13 -4
2 -28 39 -52 83 -23 44 -47 81 -51 83 -4 2 -8 7 -8 12 0 7 -103 188 -456 800
-72 124 -161 279 -199 345 -38 66 -72 122 -75 125 -3 3 -15 25 -28 50 -13 25
-51 91 -85 148 -68 115 -83 123 -120 65 -36 -58 -217 -372 -217 -377 0 -3 -14
-25 -30 -49 -16 -25 -30 -47 -30 -50 0 -3 -34 -62 -75 -132 -41 -69 -75 -128
-75 -130 0 -2 -34 -61 -75 -130 -41 -70 -75 -128 -75 -130 0 -2 -26 -47 -58
-102 -32 -54 -70 -118 -84 -143 -14 -25 -94 -164 -178 -310 -84 -146 -160
-278 -170 -295 -9 -16 -43 -75 -75 -130 -32 -55 -66 -113 -75 -130 -9 -16 -51
-89 -93 -162 -43 -72 -77 -136 -77 -142 0 -6 -4 -11 -8 -11 -15 0 -82 -146
-82 -178 0 -30 16 -77 39 -112 9 -13 84 -144 143 -250 11 -19 44 -75 73 -125
59 -101 215 -372 313 -545 36 -63 68 -117 71 -120 3 -3 14 -21 23 -40 10 -19
22 -42 28 -50 11 -17 81 -139 131 -227 12 -21 45 -78 74 -128 29 -49 63 -108
75 -129 61 -110 296 -516 316 -548 13 -21 24 -42 24 -48 0 -5 5 -10 10 -10 6
0 10 -5 10 -11 0 -6 16 -38 36 -72 20 -34 48 -82 62 -107 14 -25 56 -99 95
-165 38 -66 77 -133 87 -150 9 -16 61 -106 115 -200 142 -247 354 -614 377
-655 66 -115 210 -363 235 -406 17 -27 41 -70 55 -95 97 -173 204 -355 211
-360 5 -3 7 -8 6 -10 -2 -2 4 -15 13 -29 8 -14 34 -59 58 -100 23 -41 51 -90
61 -108 11 -17 28 -49 40 -70 12 -20 45 -77 74 -127 29 -49 62 -106 72 -125
19 -33 103 -179 231 -400 30 -52 65 -113 77 -135 13 -22 46 -80 74 -128 49
-85 63 -130 48 -154 -4 -7 -13 -10 -20 -8 -7 2 -25 6 -42 9 -16 2 -127 43
-245 91 -118 48 -219 88 -225 89 -5 2 -23 8 -40 16 -16 7 -39 16 -50 21 -11 5
-96 38 -190 75 -305 118 -399 155 -442 175 -24 10 -46 19 -49 19 -3 0 -20 6
-37 14 -38 16 -150 60 -157 61 -3 1 -23 9 -45 19 -22 10 -47 19 -56 21 -9 2
-25 8 -35 14 -11 6 -140 58 -289 117 -148 58 -283 112 -300 119 -88 39 -125
53 -125 50 0 -3 -17 4 -37 15 -21 10 -74 33 -118 50 -44 18 -91 37 -105 43
-14 6 -27 11 -30 11 -7 2 -70 27 -115 47 -23 10 -70 29 -105 42 -36 14 -91 37
-122 51 -32 14 -58 23 -58 20 0 -4 -10 0 -22 8 -13 8 -59 29 -103 46 -44 17
-186 74 -315 127 -129 53 -239 98 -245 99 -5 2 -21 8 -35 14 -14 6 -77 32
-140 57 -63 25 -124 50 -135 55 -11 5 -54 22 -95 38 -66 26 -269 109 -325 132
-27 11 -59 23 -65 24 -3 1 -9 4 -15 8 -5 3 -91 38 -190 78 -99 40 -193 78
-210 85 -16 7 -77 31 -135 55 -58 23 -120 48 -139 57 -18 8 -39 16 -45 18 -6
1 -27 9 -46 17 -19 8 -100 41 -180 74 -178 72 -207 96 -300 254 -64 109 -78
133 -138 239 -14 25 -38 68 -55 95 -16 28 -39 67 -50 86 -20 35 -187 326 -314
545 -38 66 -110 190 -159 275 -49 85 -92 156 -96 158 -5 2 -8 8 -8 14 0 6 -41
81 -92 167 -124 211 -147 252 -161 281 -6 14 -14 27 -17 30 -7 7 -29 42 -37
60 -4 8 -20 38 -36 65 -17 28 -39 66 -50 85 -70 124 -112 196 -116 200 -4 3
-16 23 -27 45 -37 70 -117 210 -123 215 -3 3 -14 21 -24 40 -33 67 -80 145
-89 148 -4 2 -8 8 -8 13 0 5 -34 69 -76 142 -42 73 -85 148 -96 167 -11 19
-44 76 -73 125 -29 50 -62 106 -72 125 -18 32 -191 331 -338 585 -32 55 -66
114 -75 130 -10 17 -34 59 -55 95 -21 36 -45 79 -55 95 -9 17 -48 84 -86 150
-37 66 -72 122 -76 123 -4 2 -8 8 -8 14 0 5 -16 37 -36 71 -20 34 -51 87 -67
117 -17 30 -55 95 -84 144 -29 49 -53 90 -53 92 0 2 -17 32 -38 66 -21 35 -54
90 -72 123 -63 112 -75 133 -254 441 -98 170 -190 329 -204 353 -14 25 -38 68
-55 95 -16 28 -37 65 -47 81 -136 240 -266 461 -272 463 -4 2 -8 8 -8 14 0 5
-37 73 -82 151 -46 78 -90 155 -98 170 -59 108 -226 393 -232 395 -5 2 -8 7
-8 12 0 4 -32 64 -71 132 -39 67 -83 143 -97 167 -14 25 -38 67 -53 93 -16 27
-29 53 -29 58 0 6 -4 10 -9 10 -5 0 -11 8 -15 18 -3 9 -19 40 -36 67 -16 28
-40 69 -52 93 -12 23 -26 42 -30 42 -4 0 -8 5 -8 10 0 10 -128 240 -139 250
-3 3 -15 23 -27 45 -11 22 -45 82 -75 133 -30 51 -63 110 -75 130 -11 20 -56
98 -99 172 -43 74 -89 153 -101 175 -40 74 -166 290 -185 317 -11 15 -19 30
-19 33 0 3 -21 40 -46 83 -25 42 -49 84 -54 92 -22 37 -150 259 -167 290 -11
19 -46 80 -78 135 -32 55 -69 120 -83 145 -13 25 -28 50 -32 55 -20 27 -240
416 -240 424 0 21 -42 25 -80 8z"/>
</g>
</svg>
