<?xml version="1.0" encoding="UTF-8"?>
<!DOCTYPE svg PUBLIC "-//W3C//DTD SVG 1.1//EN" "http://www.w3.org/Graphics/SVG/1.1/DTD/svg11.dtd">
	<svg version="1.1" xmlns="http://www.w3.org/2000/svg" xmlns:xlink="http://www.w3.org/1999/xlink"  preserveAspectRatio="xMidYMid meet" width="53.87" height="43.61"
		viewBox="0 0 50.4 43.6" xml:space="preserve">
	<style type="text/css">
		.st0{fill:#BB0A37;}
	</style>
	<g>
		<path class="st0" d="M16.4,28.3c0.1,0.1,0.1,0.1,0.2,0l2-3.4c0-0.1,0-0.1,0-0.2L17,21.9c0-0.1,0-0.1,0-0.2l1.5-2.6l6.6-11.5
			c0.1-0.2,0.2-0.2,0.3,0l8.1,14.1c0,0.1,0,0.1,0,0.2l-1.6,2.7c-0.1,0.1-0.1,0.2,0,0.3l2,3.4c0,0.1,0.1,0.1,0.2,0l3.7-6.4
			c0-0.1,0-0.1,0-0.2L25.3,0c0-0.1-0.1-0.1-0.1,0L14.3,18.9l-1.5,2.6c-0.1,0.2-0.1,0.5,0,0.7L16.4,28.3z"/>
		<path class="st0" d="M50.3,43.4l-3.3-5.6l-7.8-13.6c0-0.1-0.1-0.1-0.1,0l-2,3.5c0,0.1,0,0.1,0,0.2l4.6,8c0.1,0.2,0.1,0.2-0.1,0.1
			l-2.6-1l-5-2c-0.1,0-0.2-0.1-0.2-0.2l-8.5-14.7c-0.1,0-0.1,0-0.2,0.1l-8.4,14.6c-0.1,0.1-0.1,0.2-0.2,0.2l-2.9,1.2l-4.8,1.9
			c-0.2,0.1-0.2,0-0.1-0.1l4.6-8c0.1-0.1,0.1-0.2,0-0.3l-2-3.5c0-0.1-0.1-0.1-0.1,0L0,43.5c0,0.1,0,0.1,0.1,0.1l15.5-6.2L19,36
			c0.1,0,0.2-0.1,0.3-0.2l5.8-10.1c0.1-0.1,0.2-0.1,0.2,0l5.9,10.2c0,0.1,0.1,0.1,0.2,0.1l4.9,1.9l7.9,3.2l6,2.4
			C50.4,43.6,50.4,43.6,50.3,43.4z"/>
	</g>
</svg>
